<svg width="73" height="72" viewBox="0 0 73 72" fill="none" xmlns="http://www.w3.org/2000/svg">
<g clip-path="url(#clip0_125_844)">
<path d="M65.6916 42.6659H14.3074C13.5028 42.6659 12.7962 43.2008 12.5772 43.976L8.51112 58.3661C7.42908 62.1956 10.303 65.9993 14.2785 65.9993H64.3604C68.336 65.9993 71.21 62.1956 70.1278 58.3661L65.6916 42.6659ZM65.6916 42.6659V24.3325" stroke="#F4B40E" stroke-width="4.5" stroke-linecap="round" stroke-linejoin="round"/>
<path d="M12.9492 42.6666V12C12.9492 8.68629 15.6327 6 18.9429 6H39.3215" stroke="#F4B40E" stroke-width="4.5" stroke-linecap="round" stroke-linejoin="round"/>
<path d="M43.3174 57H49.311" stroke="#F4B40E" stroke-width="4.5" stroke-linecap="round" stroke-linejoin="round"/>
<path d="M63.2656 14.4858L54.7891 22.9711" stroke="#F4B40E" stroke-width="4.5" stroke-linecap="round" stroke-linejoin="round"/>
<path d="M71.7426 14.4853C69.4018 16.8284 65.6069 16.8284 63.2664 14.4853C60.9255 12.1421 60.9255 8.34315 63.2664 6" stroke="#F4B40E" stroke-width="4.5" stroke-linecap="round" stroke-linejoin="round"/>
<path d="M54.7897 31.456C57.1302 29.1129 57.1302 25.3139 54.7897 22.9707C52.4489 20.6276 48.654 20.6276 46.3135 22.9707" stroke="#F4B40E" stroke-width="4.5" stroke-linecap="round" stroke-linejoin="round"/>
</g>
<defs>
<clipPath id="clip0_125_844">
<rect width="71.924" height="72" fill="white" transform="translate(0.362305)"/>
</clipPath>
</defs>
</svg>
