<svg width="59" height="61" viewBox="0 0 59 61" fill="none" xmlns="http://www.w3.org/2000/svg">
<path d="M45.7736 17.1198C45.5676 17.0903 45.3617 17.0903 45.1557 17.1198C40.5948 16.9725 36.9756 13.2316 36.9756 8.63639C36.9756 3.95285 40.7714 0.123535 45.4794 0.123535C50.1579 0.123535 53.9832 3.92339 53.9832 8.63639C53.9537 13.2316 50.3345 16.9725 45.7736 17.1198Z" fill="#F4B40E"/>
<path d="M55.3739 37.5345C52.0783 39.7437 47.4586 40.5685 43.192 40.0088C44.3102 37.5934 44.8987 34.9129 44.9281 32.0851C44.9281 29.1395 44.2808 26.3412 43.0449 23.8963C47.3998 23.3072 52.0195 24.1319 55.3445 26.3412C59.9936 29.4046 59.9936 34.4416 55.3739 37.5345Z" fill="#F4B40E"/>
<path d="M13.142 17.1198C13.348 17.0903 13.554 17.0903 13.7599 17.1198C18.3208 16.9725 21.9401 13.2316 21.9401 8.63639C21.9401 3.92339 18.1442 0.123535 13.4363 0.123535C8.75772 0.123535 4.96191 3.92339 4.96191 8.63639C4.96191 13.2316 8.58117 16.9725 13.142 17.1198Z" fill="#F4B40E"/>
<path d="M13.4704 32.0857C13.4704 34.9429 14.0883 37.6529 15.2065 40.0978C11.0576 40.5396 6.73211 39.6559 3.55423 37.5645C-1.0949 34.4716 -1.0949 29.4346 3.55423 26.3417C6.70269 24.2209 11.1458 23.3666 15.3242 23.8379C14.1178 26.3123 13.4704 29.1106 13.4704 32.0857Z" fill="#F4B40E"/>
<path d="M29.8592 40.9796C29.6238 40.9501 29.359 40.9501 29.0942 40.9796C23.68 40.8029 19.3545 36.355 19.3545 30.8761C19.3839 25.2794 23.886 20.7432 29.5061 20.7432C35.0968 20.7432 39.6283 25.2794 39.6283 30.8761C39.5988 36.355 35.3028 40.8029 29.8592 40.9796Z" fill="#F4B40E"/>
<path d="M20.2962 47.0792C15.8531 50.0543 15.8531 54.944 20.2962 57.8896C25.3574 61.2771 33.6552 61.2771 38.7163 57.8896C43.1594 54.9145 43.1594 50.0248 38.7163 47.0792C33.6846 43.6917 25.3868 43.6917 20.2962 47.0792Z" fill="#F4B40E"/>
</svg>
